<?xml version="1.0" standalone="no"?><!DOCTYPE svg PUBLIC "-//W3C//DTD SVG 1.1//EN" "http://www.w3.org/Graphics/SVG/1.1/DTD/svg11.dtd"><svg t="1584085564929" class="icon" viewBox="0 0 1024 1024" version="1.1" xmlns="http://www.w3.org/2000/svg" p-id="2218" xmlns:xlink="http://www.w3.org/1999/xlink" width="200" height="200"><defs><style type="text/css"></style></defs><path d="M891.88 264.22h-58.52c-5.52 0-10 4.48-10 10v27.06c-4.82-2.42-10.26-3.8-16-3.8h-4.34c-14.08 0-26.26 8.14-32.18 19.94H693.2a121.496 121.496 0 0 0-42.92-38.84v-43.12h1.18c19.98 0 36.26-16.26 36.26-36.26 0-19.98-16.28-36.24-36.26-36.24h-19.06V121.4c1.7-1.64 3.3-3.42 4.78-5.28h98.7c18.24 0 33.08-14.84 33.08-33.08v-3.86c0-18.24-14.84-33.1-33.08-33.1h-98.7c-10.32-12.9-26.18-21.2-43.94-21.2s-33.62 8.3-43.92 21.2h-98.7c-18.26 0-33.12 14.86-33.12 33.1v3.86c0 18.24 14.86 33.08 33.12 33.08h98.68c1.48 1.86 3.08 3.62 4.78 5.28v41.56h-19.06c-19.98 0-36.24 16.26-36.24 36.24 0 20 16.26 36.26 36.24 36.26h1.18v43.14c-17.24 9.28-32 22.66-42.92 38.82h-113.26c-98.18 0-178.04 79.86-178.04 178.04v122.1c0 5.52 4.46 10 10 10h42.32c-16.86 48.12-58.14 89.06-76.34 105.44-2.72 2.2-5.38 4.5-7.94 6.86a148.824 148.824 0 0 0-34.98 48.82c-8.58 19.2-12.92 39.68-12.92 60.88 0 82.46 67.08 149.56 149.54 149.56s149.56-67.1 149.56-149.56c0-45.52-20.38-88-55.9-116.6-18.22-16.34-59.46-57.22-76.32-105.4h37.86c5.52 0 10-4.48 10-10v-122.1c0-23.8 19.36-43.18 43.16-43.18h113.28c21.7 32.06 58.4 53.18 99.94 53.18s78.24-21.12 99.96-53.16h77.64c5.92 11.78 18.1 19.92 32.18 19.92h4.34c5.74 0 11.18-1.38 16-3.8v27.04c0 5.52 4.48 10 10 10h58.52c5.54 0 10-4.48 10-10V274.22c0-5.52-4.46-10-10-10zM647.42 66.08h88.46c7.22 0 13.08 5.88 13.08 13.1v3.86c0 7.22-5.86 13.08-13.08 13.08h-88.46c1.32-4.78 2.04-9.8 2.04-15 0-5.22-0.72-10.26-2.04-15.04z m-108.34 30.04h-88.46c-7.24 0-13.12-5.86-13.12-13.08v-3.86c0-7.22 5.88-13.1 13.12-13.1h88.46a55.62 55.62 0 0 0-2.06 15.04c0 5.2 0.72 10.22 2.06 15z m54.16-51.24c19.98 0 36.22 16.26 36.22 36.24 0 19.96-16.24 36.22-36.22 36.22s-36.22-16.26-36.22-36.22c0-19.98 16.24-36.24 36.22-36.24z m19.16 89.1v28.98h-38.32v-29c5.98 2.18 12.44 3.38 19.16 3.38s13.18-1.2 19.16-3.36z m-77.38 81.48c-8.96 0-16.24-7.3-16.24-16.26s7.28-16.24 16.24-16.24h116.44c8.96 0 16.26 7.28 16.26 16.24 0 8.96-7.3 16.26-16.26 16.26h-116.44z m95.26 20v34.6c-11.68-3.78-24.12-5.84-37.04-5.84s-25.36 2.06-37.04 5.84v-34.6h74.08zM352.18 748.04c0.12 0.12 0.26 0.24 0.4 0.36 30.92 24.78 48.64 61.64 48.64 101.16 0 71.44-58.12 129.56-129.56 129.56s-129.54-58.12-129.54-129.56c0-18.36 3.76-36.1 11.18-52.72a129.26 129.26 0 0 1 30.3-42.3c2.28-2.1 4.7-4.18 7.16-6.18l0.38-0.32c18.8-16.88 61.16-58.82 80.5-109.66 19.36 50.9 61.74 92.82 80.54 109.66z m130.18-315.76h-102.34c-34.84 0-63.16 28.34-63.16 63.18v112.1h-94.88v-112.1c0-87.14 70.9-158.04 158.04-158.04h102.34a119.736 119.736 0 0 0-9.74 47.42c0 16.84 3.48 32.88 9.74 47.44z m110.88 53.18c-55.48 0-100.62-45.14-100.62-100.62s45.14-100.62 100.62-100.62 100.62 45.14 100.62 100.62-45.14 100.62-100.62 100.62z m173.76-53.16h-62.88a120.004 120.004 0 0 0 9.74-47.46c0-16.84-3.48-32.86-9.74-47.42h62.88v94.88z m56.36 3.92c0 8.82-7.18 16-16 16h-4.34c-8.84 0-16.02-7.18-16.02-16v-102.74c0-8.82 7.18-16 16.02-16h4.34c8.82 0 16 7.18 16 16v102.74z m58.52 49.24h-38.52V284.22h38.52v201.24z" fill="#23130D" p-id="2219"></path><path d="M352.58 748.4c-0.14-0.12-0.28-0.24-0.4-0.36-18.8-16.84-61.18-58.76-80.54-109.66-19.34 50.84-61.7 92.78-80.5 109.66l-0.38 0.32c-2.46 2-4.88 4.08-7.16 6.18a129.26 129.26 0 0 0-30.3 42.3c-7.42 16.62-11.18 34.36-11.18 52.72 0 71.44 58.1 129.56 129.54 129.56s129.56-58.12 129.56-129.56c0-39.52-17.72-76.38-48.64-101.16z m-80.92 207.44c-59.34 0-107.64-48.28-107.64-107.62 0-59.36 48.3-107.64 107.64-107.64 59.36 0 107.64 48.28 107.64 107.64 0 59.34-48.28 107.62-107.64 107.62z" fill="#3594BF" p-id="2220"></path><path d="M181.58 907.06a106.928 106.928 0 0 1-17.56-58.84c0-25.6 8.98-49.12 23.96-67.62 6-9.56 13.24-18.28 21.62-26.06 2.28-2.1 4.7-4.18 7.16-6.18l0.38-0.32c15.28-13.72 46.1-43.98 67.5-82.1-4.94-8.8-9.38-18.02-13-27.56-19.34 50.84-61.7 92.78-80.5 109.66l-0.38 0.32c-2.46 2-4.88 4.08-7.16 6.18a129.26 129.26 0 0 0-30.3 42.3c-7.42 16.62-11.18 34.36-11.18 52.72 0 71.44 58.1 129.56 129.54 129.56 4.38 0 8.72-0.22 13-0.64-45.24-4.54-83.7-32.44-103.08-71.42z" fill="#23130D" opacity=".2" p-id="2221"></path><path d="M823.36 333.48v102.74c0 8.82-7.18 16-16 16h-4.34c-8.84 0-16.02-7.18-16.02-16v-102.74c0-8.82 7.18-16 16.02-16h4.34c8.82 0 16 7.18 16 16z" fill="#636368" p-id="2222"></path><path d="M843.36 284.22h38.52v201.24h-38.52z" fill="#E1E1E5" p-id="2223"></path><path d="M612.4 133.98v28.98h-38.32v-29c5.98 2.18 12.44 3.38 19.16 3.38s13.18-1.2 19.16-3.36z" fill="#636368" p-id="2224"></path><path d="M537.02 81.12c0 5.2 0.72 10.22 2.06 15h-88.46c-7.24 0-13.12-5.86-13.12-13.08v-3.86c0-7.22 5.88-13.1 13.12-13.1h88.46a55.62 55.62 0 0 0-2.06 15.04zM748.96 79.18v3.86c0 7.22-5.86 13.08-13.08 13.08h-88.46c1.32-4.78 2.04-9.8 2.04-15 0-5.22-0.72-10.26-2.04-15.04h88.46c7.22 0 13.08 5.88 13.08 13.1z" fill="#E1E1E5" p-id="2225"></path><path d="M537.06 79.08h-86.44c-5.62 0-10.44 3.56-12.3 8.52-0.54-1.42-0.82-2.96-0.82-4.56v-3.86c0-7.22 5.88-13.1 13.12-13.1h88.46c-1.16 4.16-1.86 8.5-2.02 13zM748.96 79.18v3.86c0 1.6-0.28 3.14-0.82 4.56-1.86-4.96-6.64-8.52-12.26-8.52h-86.46c-0.16-4.5-0.86-8.84-2-13h88.46c7.22 0 13.08 5.88 13.08 13.1z" fill="#23130D" opacity=".2" p-id="2226"></path><path d="M629.46 81.12c0 19.96-16.24 36.22-36.22 36.22s-36.22-16.26-36.22-36.22c0-19.98 16.24-36.24 36.22-36.24s36.22 16.26 36.22 36.24zM667.72 199.2c0 8.96-7.3 16.26-16.26 16.26h-116.44c-8.96 0-16.24-7.3-16.24-16.26s7.28-16.24 16.24-16.24h116.44c8.96 0 16.26 7.28 16.26 16.24z" fill="#E1E1E5" p-id="2227"></path><path d="M630.28 235.46v34.6c-11.68-3.78-24.12-5.84-37.04-5.84s-25.36 2.06-37.04 5.84v-34.6h74.08z" fill="#636368" p-id="2228"></path><path d="M767 337.42v94.88h-62.88a120.004 120.004 0 0 0 9.74-47.46c0-16.84-3.48-32.86-9.74-47.42h62.88z" fill="#E1E1E5" p-id="2229"></path><path d="M767 337.42v13h-58.18c-1.32-4.44-2.9-8.78-4.7-13h62.88z" fill="#23130D" opacity=".2" p-id="2230"></path><path d="M693.86 384.84c0 55.48-45.14 100.62-100.62 100.62s-100.62-45.14-100.62-100.62 45.14-100.62 100.62-100.62 100.62 45.14 100.62 100.62z" fill="#3594BF" p-id="2231"></path><path d="M593.24 466.66c-45.116 0-81.818-36.704-81.818-81.82s36.704-81.82 81.818-81.82 81.818 36.704 81.818 81.82-36.702 81.82-81.818 81.82z m0-143.64c-34.086 0-61.818 27.732-61.818 61.82s27.732 61.82 61.818 61.82 61.818-27.732 61.818-61.82-27.732-61.82-61.818-61.82z" fill="#F5FCFF" p-id="2232"></path><path d="M472.62 384.84c0 16.84 3.48 32.88 9.74 47.44h-102.34c-34.84 0-63.16 28.34-63.16 63.18v112.1h-94.88v-112.1c0-87.14 70.9-158.04 158.04-158.04h102.34a119.736 119.736 0 0 0-9.74 47.42z" fill="#E1E1E5" p-id="2233"></path><path d="M482.36 337.42c-1.84 4.32-3.46 8.76-4.8 13.32h-84.22c-87.14 0-158.04 70.9-158.04 158.04v98.78h-13.32v-112.1c0-87.14 70.9-158.04 158.04-158.04h102.34z" fill="#23130D" opacity=".2" p-id="2234"></path><path d="M307.28 868.12c0 15.04-11.16 27.48-25.62 29.56v12.7c0 5.52-4.48 10-10 10-5.54 0-10-4.48-10-10v-12.36h-15.64c-5.54 0-10-4.48-10-10s4.46-10 10-10h31.38c5.46 0 9.88-4.44 9.88-9.9s-4.42-9.9-9.88-9.9h-11.48c-16.5 0-29.92-13.42-29.92-29.9 0-15.04 11.18-27.5 25.66-29.58v-12.68c0-5.54 4.46-10 10-10 5.52 0 10 4.46 10 10v12.34h15.62c5.52 0 10 4.48 10 10 0 5.54-4.48 10-10 10h-31.36c-5.46 0-9.92 4.46-9.92 9.92s4.46 9.9 9.92 9.9h11.48c16.48 0 29.88 13.42 29.88 29.9z" fill="#23130D" p-id="2235"></path><path d="M271.66 740.58c-59.34 0-107.64 48.28-107.64 107.64 0 59.34 48.3 107.62 107.64 107.62 59.36 0 107.64-48.28 107.64-107.62 0-59.36-48.28-107.64-107.64-107.64z m0 195.26c-48.32 0-87.64-39.3-87.64-87.62 0-48.34 39.32-87.64 87.64-87.64s87.64 39.3 87.64 87.64c0 48.32-39.32 87.62-87.64 87.62z" fill="#23130D" p-id="2236"></path><path d="M271.66 760.58c-48.32 0-87.64 39.3-87.64 87.64 0 48.32 39.32 87.62 87.64 87.62s87.64-39.3 87.64-87.62c0-48.34-39.32-87.64-87.64-87.64z m-5.74 77.64h11.48c16.48 0 29.88 13.42 29.88 29.9 0 15.04-11.16 27.48-25.62 29.56v12.7c0 5.52-4.48 10-10 10-5.54 0-10-4.48-10-10v-12.36h-15.64c-5.54 0-10-4.48-10-10s4.46-10 10-10h31.38c5.46 0 9.88-4.44 9.88-9.9s-4.42-9.9-9.88-9.9h-11.48c-16.5 0-29.92-13.42-29.92-29.9 0-15.04 11.18-27.5 25.66-29.58v-12.68c0-5.54 4.46-10 10-10 5.52 0 10 4.46 10 10v12.34h15.62c5.52 0 10 4.48 10 10 0 5.54-4.48 10-10 10h-31.36c-5.46 0-9.92 4.46-9.92 9.92s4.46 9.9 9.92 9.9z" fill="#F9C139" p-id="2237"></path><path d="M284.28 923.22c-48.32 0-87.64-39.3-87.64-87.62 0-20.94 7.4-40.2 19.7-55.3-19.72 16.08-32.32 40.54-32.32 67.92 0 48.32 39.32 87.62 87.64 87.62 27.38 0 51.88-12.62 67.96-32.36-15.1 12.34-34.38 19.74-55.34 19.74z" fill="#23130D" opacity=".2" p-id="2238"></path><path d="M347 858.21a10 10 0 0 1-10-10c0-36.024-29.306-65.33-65.33-65.33a10 10 0 1 1 0-20c47.05 0 85.33 38.28 85.33 85.33a10 10 0 0 1-10 10z" fill="#FFFFFF" p-id="2239"></path></svg>